PathFileType	4	(X/Y/Z)	C:\Users\Biomechanik\SynologyDrive\AlexP\Athlete_03\Athlete_3_25_03_31\Deadlift_bw_02\marker_experimental.trc
DataRate	CameraRate	NumFrames	NumMarkers	Units	OrigDataRate	OrigDataStartFrame	OrigNumFrames
200.000000	200.000000	4	55	mm	200.000000	0	1804
Frame#	Time	BL			BR			GLAB			RFHD			LFHD			C7			T6			SPINMOL			SPINM2			SPINM3			T12			BELTOL			BELT2			BELT3			SACROL			SACR2			SACR3			LTHOL			LTH2			LTH3			LSHAOL			LSHA2			LSHA3			LHEE			LTOE			LM5			RTHOL			RTH2			RTH3			RSHAOL			RSHA2			RSHA3			RHEE			RTOE			RM5			STRN			XIPH			LACR			LUAOL			LUA2			LUA3			LLAOL			LLA2			LLA3			LWRR			LWRU			RACR			RUAOL			RUA2			RUA3			RLAOL			RLA2			RLA3			RWRR			RWRU			
		X1	Y1	Z1	X2	Y2	Z2	X3	Y3	Z3	X4	Y4	Z4	X5	Y5	Z5	X6	Y6	Z6	X7	Y7	Z7	X8	Y8	Z8	X9	Y9	Z9	X10	Y10	Z10	X11	Y11	Z11	X12	Y12	Z12	X13	Y13	Z13	X14	Y14	Z14	X15	Y15	Z15	X16	Y16	Z16	X17	Y17	Z17	X18	Y18	Z18	X19	Y19	Z19	X20	Y20	Z20	X21	Y21	Z21	X22	Y22	Z22	X23	Y23	Z23	X24	Y24	Z24	X25	Y25	Z25	X26	Y26	Z26	X27	Y27	Z27	X28	Y28	Z28	X29	Y29	Z29	X30	Y30	Z30	X31	Y31	Z31	X32	Y32	Z32	X33	Y33	Z33	X34	Y34	Z34	X35	Y35	Z35	X36	Y36	Z36	X37	Y37	Z37	X38	Y38	Z38	X39	Y39	Z39	X40	Y40	Z40	X41	Y41	Z41	X42	Y42	Z42	X43	Y43	Z43	X44	Y44	Z44	X45	Y45	Z45	X46	Y46	Z46	X47	Y47	Z47	X48	Y48	Z48	X49	Y49	Z49	X50	Y50	Z50	X51	Y51	Z51	X52	Y52	Z52	X53	Y53	Z53	X54	Y54	Z54	X55	Y55	Z55	

1	0	1214.230224609375	39.24785995483413	-2269.196533203125	1226.845458984375	29.80873107910158	-248.9852752685547	364.2889099121094	1611.86474609375	-1211.179931640625	315.1961364746094	1636.20947265625	-1147.108276367188	318.1849365234375	1634.015991210938	-1282.125366210938	143.1412811279297	1442.287231445312	-1217.894775390625	97.62559509277344	1266.835693359375	-1224.844970703125	93.83658599853516	1230.047729492188	-1246.098754882812	88.79930114746094	1221.197021484375	-1196.535888671875	100.0488433837891	1165.698974609375	-1231.493896484375	113.8334884643555	1111.230590820312	-1228.186645507812	94.58180999755859	1085.809326171875	-1243.820922851562	94.99164581298828	1083.450073242188	-1193.566772460938	87.68528747558594	1023.49609375	-1222.050170898438	90.6583251953125	966.6224975585939	-1243.74267578125	91.79676818847656	963.6546630859376	-1192.490112304688	67.37834167480469	908.8502197265626	-1220.30615234375	177.9295806884766	682.4152221679689	-1406.911010742188	126.9222946166992	628.7774658203126	-1377.118774414062	174.1503295898438	622.4006347656251	-1393.44775390625	148.8261566162109	327.2502441406251	-1407.418823242188	98.92147827148438	265.8726501464845	-1396.707397460938	148.3241119384766	265.4968872070314	-1404.362060546875	76.34597015380859	68.97098541259774	-1319.501342773438	293.44189453125	48.61434173583992	-1331.729614257812	242.4340972900391	29.63831138610849	-1431.6201171875	164.1957092285156	696.1530151367189	-1031.58447265625	218.5745391845703	638.7877197265626	-1019.197998046875	171.9178466796875	634.9842529296876	-1037.080932617188	131.6394195556641	346.2160949707032	-1020.501525878906	162.5310821533203	273.9519348144532	-1014.678955078125	116.8860397338867	285.8454284667969	-1029.963623046875	76.31535339355469	63.83081054687507	-1115.206787109375	289.30908203125	48.18299484252937	-1103.04931640625	237.0108489990234	39.11919784545905	-1003.398132324219	313.6086730957031	1348.989135742188	-1223.673217773438	342.0662231445312	1206.759521484375	-1224.412353515625	232.8088073730469	1398.21142578125	-1401.42333984375	240.592041015625	1231.250244140625	-1499.614868164062	230.6378326416016	1167.69970703125	-1514.628662109375	274.8249206542969	1176.027954101562	-1491.23046875	283.0523376464844	967.2858276367189	-1527.14501953125	248.8384399414062	897.2759399414064	-1513.220703125	297.385498046875	907.4642944335939	-1520.916015625	330.1715393066406	808.4494628906251	-1511.42724609375	364.6084594726562	823.4212036132814	-1440.099731445312	249.0807952880859	1395.420776367188	-1048.347045898438	253.7974395751953	1233.005615234375	-955.0573120117186	282.4805297851562	1172.724731445312	-959.5148315429686	235.2210235595703	1171.89794921875	-936.4385986328124	291.0331115722656	953.5238647460939	-932.8256225585936	355.0843811035156	906.1609497070312	-925.382080078125	308.8656005859375	893.5355834960939	-939.3286743164062	357.7780151367188	816.3032226562501	-943.6083374023438	383.34716796875	815.1362304687501	-1020.969848632812	
2	0.005	1214.230834960938	39.24908447265639	-2269.1982421875	1226.846313476562	29.81077766418458	-248.9786224365234	364.6192016601562	1611.718017578125	-1211.215942382812	315.549560546875	1636.126220703125	-1147.148559570312	318.5535583496094	1633.898193359375	-1282.19384765625	143.3091888427734	1442.343017578125	-1217.92138671875	97.67776489257812	1266.9296875	-1224.886840820312	93.86302947998047	1230.137817382812	-1246.141235351562	88.81432342529297	1221.293579101562	-1196.578857421875	100.0336761474609	1165.787109375	-1231.530517578125	113.7844085693359	1111.294921875	-1228.208740234375	94.50333404541016	1085.872924804688	-1243.826416015625	94.91590118408203	1083.528442382812	-1193.588012695312	87.56526184082031	1023.572143554688	-1222.069213867188	90.5076904296875	966.6212768554689	-1243.750122070312	91.66661834716797	963.6461181640626	-1192.492431640625	67.25008392333984	908.8398437500001	-1220.316040039062	177.8946075439453	682.3705444335939	-1406.960205078125	126.8946838378906	628.7153320312501	-1377.179931640625	174.1338958740234	622.3565063476564	-1393.483642578125	148.8863677978516	327.2268981933595	-1407.434326171875	98.97240447998047	265.8538513183595	-1396.746948242188	148.3798217773438	265.4772949218751	-1404.372924804688	76.34492492675781	68.97088623046884	-1319.50390625	293.4432067871094	48.61349105834969	-1331.72216796875	242.4337005615234	29.64441871643075	-1431.611206054688	164.2006988525391	696.0689086914064	-1031.51123046875	218.6388549804688	638.7565307617189	-1019.155090332031	171.9801940917969	634.9114379882814	-1037.012451171875	131.8156585693359	346.1824951171876	-1020.451538085938	162.687255859375	273.9054260253907	-1014.67919921875	117.0319137573242	285.8177185058594	-1029.917236328125	76.31803894042969	63.82516098022468	-1115.204345703125	289.3124389648438	48.17812347412116	-1103.047485351562	237.0015869140625	39.12944030761725	-1003.404235839844	313.7294616699219	1348.947875976562	-1223.686645507812	342.0870666503906	1206.742797851562	-1224.407836914062	232.971435546875	1398.218627929688	-1401.443115234375	240.7029418945312	1231.248413085938	-1499.614990234375	230.6821594238281	1167.75244140625	-1514.650268554688	274.9050903320312	1176.00927734375	-1491.2314453125	283.0828247070312	967.2615966796876	-1527.140625	248.8404846191406	897.2716674804689	-1513.22021484375	297.3871154785156	907.4469604492189	-1520.909301757812	330.1460876464844	808.4229736328126	-1511.404174804688	364.571044921875	823.3974609375001	-1440.072631835938	249.2161712646484	1395.406982421875	-1048.38330078125	253.8751831054688	1233.016479492188	-955.0703735351561	282.5260009765625	1172.770629882812	-959.5226440429686	235.2980651855469	1171.922973632812	-936.4322509765624	291.0499877929688	953.5273437500001	-932.8175048828124	355.0859680175781	906.1752319335938	-925.3365478515625	308.8724975585938	893.5345458984376	-939.3175659179688	357.7641296386719	816.2921142578126	-943.5980834960938	383.3287963867188	815.1154174804689	-1020.954528808594	
3	0.01	1214.231567382812	39.250270843506	-2269.199951171875	1226.847045898438	29.81297874450685	-248.9707794189453	365.0066528320312	1611.547973632812	-1211.256958007812	315.9643859863281	1636.02880859375	-1147.196044921875	318.9810485839844	1633.763671875	-1282.264892578125	143.5078735351562	1442.409057617188	-1217.952758789062	97.73880767822266	1267.040893554688	-1224.934814453125	93.89365386962891	1230.244384765625	-1246.189453125	88.832275390625	1221.408081054688	-1196.627807617188	100.0152130126953	1165.89111328125	-1231.571655273438	113.7251205444336	1111.37158203125	-1228.232543945312	94.41187286376953	1085.949829101562	-1243.83251953125	94.82634735107422	1083.621704101562	-1193.610961914062	87.42258453369141	1023.662902832031	-1222.089721679688	90.32871246337891	966.6212768554689	-1243.7568359375	91.50726318359375	963.6387939453126	-1192.49365234375	67.09736633300781	908.8291015625001	-1220.326171875	177.852783203125	682.3176269531251	-1407.014770507812	126.8608245849609	628.6427612304689	-1377.251098632812	174.1136779785156	622.3055419921876	-1393.525024414062	148.9544982910156	327.2011718750001	-1407.451782226562	99.03073883056641	265.8322753906251	-1396.791870117188	148.4433288574219	265.4551086425782	-1404.385009765625	76.34413146972656	68.96979522705087	-1319.506958007812	293.4446105957031	48.61254882812508	-1331.713623046875	242.4332122802734	29.6515541076661	-1431.601440429688	164.2058563232422	695.9747924804689	-1031.430419921875	218.7111053466797	638.7230834960939	-1019.10888671875	172.0504608154297	634.8290405273439	-1036.936279296875	132.018310546875	346.1443786621094	-1020.394470214844	162.8663330078125	273.8526000976563	-1014.678894042969	117.1998901367188	285.7863464355469	-1029.864379882812	76.32098388671875	63.81871032714851	-1115.201416015625	289.3165283203125	48.17248535156257	-1103.04443359375	236.9935607910156	39.13980102539069	-1003.410034179688	313.8717346191406	1348.897583007812	-1223.703735351562	342.1126098632812	1206.72216796875	-1224.403564453125	233.1634216308594	1398.226806640625	-1401.466186523438	240.8335266113281	1231.246459960938	-1499.615600585938	230.7429046630859	1167.803833007812	-1514.672729492188	275.000244140625	1175.987670898438	-1491.233276367188	283.1170959472656	967.2337036132814	-1527.13720703125	248.8422698974609	897.2662353515626	-1513.220092773438	297.3885192871094	907.4263305664064	-1520.902221679688	330.1153869628906	808.3914794921876	-1511.377685546875	364.5260620117188	823.3697509765626	-1440.041381835938	249.3751983642578	1395.390991210938	-1048.426147460938	253.9654388427734	1233.027954101562	-955.0869140624999	282.5840759277344	1172.813720703125	-959.5419921874999	235.3866729736328	1171.951171875	-936.4256591796874	291.0693359375	953.5311279296876	-932.8079833984374	355.0916137695312	906.1911010742188	-925.2962646484375	308.8803405761719	893.5328369140626	-939.3046264648438	357.7478332519531	816.2789306640626	-943.5855712890625	383.3069763183594	815.0911254882814	-1020.935913085938	
4	0.015	1214.232421875	39.25133895874038	-2269.20166015625	1226.847900390625	29.81527519226076	-248.9617767333984	365.4505920410156	1611.355346679688	-1211.302612304688	316.43994140625	1635.917114257812	-1147.250244140625	319.4664306640625	1633.614013671875	-1282.337158203125	143.7374877929688	1442.4853515625	-1217.988891601562	97.80851745605469	1267.16943359375	-1224.988403320312	93.9283447265625	1230.367431640625	-1246.242797851562	88.85321807861328	1221.540771484375	-1196.682250976562	99.99327850341797	1166.01123046875	-1231.616821289062	113.6551284790039	1111.460815429688	-1228.257080078125	94.30757904052734	1086.041015625	-1243.83935546875	94.72293853759766	1083.72998046875	-1193.635009765625	87.25711059570312	1023.768615722656	-1222.111206054688	90.12104797363281	966.6229858398439	-1243.76220703125	91.31683349609375	963.6335449218751	-1192.493408203125	66.91973876953125	908.8183593750001	-1220.336059570312	177.8035278320312	682.2564086914064	-1407.074096679688	126.8203125	628.5599365234376	-1377.331665039062	174.0893402099609	622.2479858398439	-1393.571533203125	149.0295715332031	327.173553466797	-1407.470825195312	99.09587097167969	265.8081665039064	-1396.841430664062	148.5138549804688	265.430633544922	-1404.39794921875	76.34369659423828	68.96745300292977	-1319.510498046875	293.446044921875	48.61151123046883	-1331.704223632812	242.4326324462891	29.6596450805665	-1431.590698242188	164.2106781005859	695.8720703125001	-1031.34375	218.7900848388672	638.6882934570314	-1019.060729980469	172.1275177001953	634.7381591796876	-1036.85400390625	132.24560546875	346.1022033691407	-1020.330993652344	163.0666961669922	273.7940673828126	-1014.677917480469	117.3886184692383	285.7517700195313	-1029.805786132812	76.32411193847656	63.81156539916999	-1115.197875976562	289.3213500976562	48.16610717773445	-1103.040283203125	236.9871978759766	39.14999008178717	-1003.415100097656	314.0354614257812	1348.837890625	-1223.72509765625	342.14306640625	1206.697143554688	-1224.39990234375	233.3848114013672	1398.23583984375	-1401.492309570312	240.9837799072266	1231.24462890625	-1499.617065429688	230.8216094970703	1167.851684570312	-1514.694702148438	275.1105041503906	1175.963256835938	-1491.235961914062	283.1546630859375	967.2024536132814	-1527.135498046875	248.8435974121094	897.2595825195314	-1513.220581054688	297.3895874023438	907.4023437500001	-1520.894897460938	330.0792541503906	808.3548583984376	-1511.34814453125	364.4732971191406	823.3381347656251	-1440.006225585938	249.5576782226562	1395.373168945312	-1048.475219726562	254.0679779052734	1233.039672851562	-955.1071166992186	282.65478515625	1172.852661132812	-959.5734252929686	235.4861145019531	1171.982177734375	-936.4192504882811	291.0910034179688	953.5351562500001	-932.7969970703124	355.101806640625	906.2080688476562	-925.263671875	308.8889465332031	893.5302734375001	-939.2898559570312	357.7291870117188	816.2636718750001	-943.5707397460938	383.2815856933594	815.0633544921876	-1020.914001464844	
